HIERARCHY
ROOT HipCenter
{
    OFFSET 0.0 0.0 -0.0
    CHANNELS 6 Xposition Yposition Zposition Zrotation Xrotation Yrotation
    JOINT Spine
    {
        OFFSET 0.0 11.291601181030273 0.0
        CHANNELS 3 Zrotation Xrotation Yrotation
        JOINT ShoulderCenter
        {
            OFFSET 0.0 31.740219116210938 0.0
            CHANNELS 3 Zrotation Xrotation Yrotation
            JOINT LeftShoulder
            {
                OFFSET 12.334678649902344 0.0 0.0
                CHANNELS 3 Zrotation Xrotation Yrotation
                JOINT LeftElbow
                {
                    OFFSET 28.573638916015625 0.0 0.0
                    CHANNELS 3 Zrotation Xrotation Yrotation
                    JOINT LeftWrist
                    {
                        OFFSET 27.68528938293457 0.0 0.0
                        CHANNELS 3 Zrotation Xrotation Yrotation
                        JOINT LeftHand
                        {
                            OFFSET 3.642221450805664 0.0 0.0
                            CHANNELS 3 Zrotation Xrotation Yrotation
                            End Site
                            {
                                OFFSET 1.4568884372711182 0.0 0.0
                            }
                        }
                    }
                }
            }
            JOINT RightShoulder
            {
                OFFSET -12.334678649902344 0.0 0.0
                CHANNELS 3 Zrotation Xrotation Yrotation
                JOINT RightElbow
                {
                    OFFSET -28.573638916015625 0.0 0.0
                    CHANNELS 3 Zrotation Xrotation Yrotation
                    JOINT RightWrist
                    {
                        OFFSET -27.68528938293457 0.0 0.0
                        CHANNELS 3 Zrotation Xrotation Yrotation
                        JOINT RightHand
                        {
                            OFFSET -3.642221450805664 0.0 0.0
                            CHANNELS 3 Zrotation Xrotation Yrotation
                            End Site
                            {
                                OFFSET -1.4568884372711182 0.0 0.0
                            }
                        }
                    }
                }
            }
            End Site
            {
                OFFSET 0.0 12.696088790893555 0.0
            }
        }
    }
    JOINT LeftHip
    {
        OFFSET 12.996477127075195 0.0 0.0
        CHANNELS 3 Zrotation Xrotation Yrotation
        JOINT LeftKnee
        {
            OFFSET 0.0 -34.82246017456055 0.0
            CHANNELS 3 Zrotation Xrotation Yrotation
            JOINT LeftAnkle
            {
                OFFSET 0.0 -38.897281646728516 0.0
                CHANNELS 3 Zrotation Xrotation Yrotation
                JOINT LeftFoot
                {
                    OFFSET 0.0 -10.547685623168945 0.0
                    CHANNELS 3 Zrotation Xrotation Yrotation
                    End Site
                    {
                        OFFSET 0.0 0.0 4.219074249267578
                    }
                }
            }
        }
    }
    JOINT RightHip
    {
        OFFSET -12.996477127075195 0.0 0.0
        CHANNELS 3 Zrotation Xrotation Yrotation
        JOINT RightKnee
        {
            OFFSET 0.0 -34.82246017456055 0.0
            CHANNELS 3 Zrotation Xrotation Yrotation
            JOINT RightAnkle
            {
                OFFSET 0.0 -38.897281646728516 0.0
                CHANNELS 3 Zrotation Xrotation Yrotation
                JOINT RightFoot
                {
                    OFFSET 0.0 -10.547685623168945 0.0
                    CHANNELS 3 Zrotation Xrotation Yrotation
                    End Site
                    {
                        OFFSET 0.0 0.0 4.219074249267578
                    }
                }
            }
        }
    }
}
MOTION
Frames: 5
Frame Time: 0.03333333333333333
67.9000015258789 25.0 -0.0 -7.696052074411581 3.0662419532184075 -95.52036146351031 -0.1803772287202348 22.39090804377127 0.8213595524107047 6.494123957990226e-07 -1.73809389237289e-06 3.5789340080576566 94.00252913800824 1.3316822296380413 -174.2376899968382 2.1265369399728344e-06 -1.6107093361765808e-06 33.99955577850516 -1.971562092228152e-06 -79.88804912638714 20.31261097955057 -3.1805546814635176e-15 0.0 0.0 -97.56911562411088 -7.727092604428374 -176.1353686662119 -1.5361948936316397e-06 -1.6034108955980944e-06 -34.92907968985416 -1.0699961185432574e-05 -74.46337803986006 -16.114749125583884 0.0 3.1805546814635176e-15 0.0 -5.84273984131567 -5.926292181511447 -19.015108521189145 -4.023308886339493 35.27759636351365 -19.074056197015974 100.35549890505534 -44.253087945217345 135.25576372271058 8.827812596100317e-32 3.180554681463516e-15 -3.180554681463516e-15 10.524539706147635 -4.668856751205722 22.092446423116257 8.72415043346286 31.101968806375865 15.868486213296045 -100.90481232665 -35.25038969576438 -140.80117662864944 4.770832022195275e-15 6.3611093629270335e-15 -2.648343778830095e-31
68.0 24.899999618530273 0.5 -7.62815018470356 3.0394006682311208 -95.89179274723979 -0.4247050170422063 22.88517017132931 1.0354340625795617 -1.4526634736902813e-06 1.7286254022091107e-06 2.568124408497111 94.35768816949412 1.0901311088686203 -174.16884518195513 2.139144399521262e-07 3.677190873049003e-07 32.738196956243534 1.959349276584951e-05 -81.71338722149538 21.2134921748785 2.3854160110976376e-15 3.1805546814635168e-15 1.5902773407317584e-15 -97.25078678244702 -5.24104344753724 -176.85556851087114 -1.9583032323326284e-06 -1.5271035500257239e-06 -35.21904406497208 -1.1102669786131234e-05 -72.81108177292829 -15.71326622762538 0.0 0.0 0.0 -6.149654396223234 -6.0615317213140205 -18.94736098365385 -3.996136146800496 35.20100896998276 -18.820992533086496 100.44435479389078 -44.68916488501774 134.896321774724 -6.3611093629270335e-15 3.531125038440127e-31 -6.3611093629270335e-15 9.81051903825565 -5.598085317226638 21.255718884096805 9.479386871988572 31.892929806270935 16.176728096453754 -99.7983954615946 -34.9376281412394 -139.57917234104792 1.5902773407317582e-15 4.4139062980501586e-32 3.1805546814635164e-15
68.19999694824219 24.899999618530273 1.0 -7.1250257243859405 4.054172599071486 -96.96114382061711 0.31497717606602055 23.087846883261857 1.2466118239230302 -1.4817322305095998e-06 1.340430526455281e-06 2.14050571962907 94.45848093418807 1.5598528528339224 -174.29794018373272 -5.971428969945067e-07 -5.519330134178382e-07 31.470463761116704 9.77939219996125e-06 -79.7400555851293 21.07189352414754 -2.3854160110976376e-15 -3.310429723537619e-32 1.5902773407317584e-15 -97.37098106692926 -3.7827132050445487 -177.2159406952277 1.296126456264038e-07 -9.591493736601496e-07 -36.63427965863669 3.080590374141102e-07 -73.30754006041533 -15.9564558887873 6.3611093629270335e-15 3.1805546814635168e-15 -1.7655625192200634e-31 -5.136917590843955 -6.562549772037797 -18.967600222066988 -5.005790693368265 34.93374570296561 -17.649316394657543 100.31224842011017 -44.442446899852705 133.6882905310212 -2.648343778830095e-31 3.180554681463516e-15 9.541664044390547e-15 9.945543719089812 -6.775230115296924 21.404978527853515 10.508595854747458 32.50796726587432 16.82301080135495 -97.83004733998774 -34.58509212697402 -138.03015050231772 7.951386703658792e-15 -6.3611093629270335e-15 4.413906298050159e-31
68.4000015258789 24.899999618530273 1.7000000476837158 -6.620792584392459 4.058461620599168 -98.22019953843423 -0.4830891969246254 23.46876573676346 1.5474917823167695 3.2945098944259024e-07 -9.193526434751835e-09 2.155131588502919 95.1863590608072 1.5467261163779316 -174.1665866305959 -1.5922878854371488e-06 -5.947397264017102e-07 30.559196752637543 6.440907957430629e-05 -85.18167126873028 19.780618180891576 8.34895603884173e-15 0.0 0.0 -97.22378760909928 -3.6252625395062914 -178.0695508022854 -1.3720580881958319e-06 -2.89757563304426e-06 -37.732492979506276 -5.636902203381603e-06 -76.37993069115811 -16.26322658033261 6.3611093629270335e-15 -3.1805546814635168e-15 3.1805546814635168e-15 -5.112776002966807 -7.028127941219347 -18.967444170271296 -5.999644895642589 34.176238818433994 -16.667981472118417 99.74193815961397 -43.91311181334872 132.7252567329214 6.3611093629270335e-15 6.3611093629270335e-15 -3.531125038440127e-31 9.543823455503846 -8.47984929401627 20.320360281089528 10.382459830498883 34.31602501635512 17.969171977935083 -96.90418015811966 -34.73460842366845 -136.77628244665226 7.951386703658792e-15 -2.2069531490250793e-31 -3.1805546814635168e-15
68.80000305175781 24.899999618530273 2.299999952316284 -5.609267108398803 4.572348947667199 -99.36404744167203 -0.4995095978186882 23.66588840403034 2.1811117827453037 -1.0763760612134335e-07 -7.228521835122674e-07 1.2904381341233397 95.73077838928957 2.2032224408674175 -173.8539994467708 -3.3462953380704804e-07 -1.6990230999657611e-06 29.59348287991479 -1.6153596062277118e-05 -83.3974567729751 19.408522688653278 8.348956038841732e-15 0.0 0.0 -97.24083899130231 -3.8559051750980293 -178.9447942171239 -3.269181525262067e-06 2.8982965057733968e-06 -39.09674342822777 -2.126867372083185e-05 -78.17319390876632 -15.37652940967925 -1.1034765745125397e-32 7.951386703658792e-16 1.5902773407317584e-15 -4.187648339353726 -7.850609751639849 -18.908566328502868 -6.88217157755839 32.996241648333985 -15.604705132986659 98.05849630970536 -43.95340766707397 130.39027190638976 6.361109362927035e-15 -3.1805546814635176e-15 1.7655625192200634e-31 9.737476602151371 -12.121003937920735 17.68021633589599 10.811735595339375 39.35362919279524 21.320058144804864 -97.03112262698856 -32.6238585443193 -138.0341669385028 3.1805546814635168e-15 -6.3611093629270335e-15 1.7655625192200634e-31
